<?xml version="1.0" encoding="utf-8"?>
<svg id="master-artboard" viewBox="0 0 1400 980" version="1.1" x="0px" y="0px" style="enable-background:new 0 0 1400 980;" width="1400px" height="980px" xmlns="http://www.w3.org/2000/svg">
  <rect id="ee-background" x="0" y="0" width="1400" height="980" style="fill: white; fill-opacity: 0; pointer-events: none;"/>
  <g transform="matrix(9.385904, 0, 0, 12.175284, 291.08606, 443.950928)" style="">
    <path d="M 59.316917419433594 14 L 59.316917419433594 -3.1299991607666016 L 61.306915283203125 -3.1299991607666016 L 61.306915283203125 14 L 59.316917419433594 14 ZM 82.07713317871094 14 L 82.07713317871094 5.640000343322754 C 82.07713317871094 4.619999885559082 81.86045837402344 3.8533334732055664 81.42713165283203 3.3400001525878906 C 80.98712921142578 2.826666831970215 80.30712890625 2.5699996948242188 79.38713073730469 2.5699996948242188 C 78.17379760742188 2.5699996948242188 77.27713012695312 2.9200000762939453 76.69712829589844 3.619999885559082 C 76.12379455566406 4.313333511352539 75.83712768554688 5.383333206176758 75.83712768554688 6.829999923706055 L 75.83712768554688 14 L 73.88713073730469 14 L 73.88713073730469 5.640000343322754 C 73.88713073730469 4.619999885559082 73.67046356201172 3.8533334732055664 73.23712921142578 3.3400001525878906 C 72.79712677001953 2.826666831970215 72.1137924194336 2.5699996948242188 71.18712615966797 2.5699996948242188 C 69.96713256835938 2.5699996948242188 69.07379913330078 2.936666488647461 68.50712585449219 3.6700000762939453 C 67.94046020507812 4.40333366394043 67.6571273803711 5.600000381469727 67.6571273803711 7.260000228881836 L 67.6571273803711 14 L 65.7071304321289 14 L 65.7071304321289 1.1599998474121094 L 67.2871322631836 1.1599998474121094 L 67.60713195800781 2.9099998474121094 L 67.69712829589844 2.9099998474121094 C 68.07046508789062 2.2899999618530273 68.59046173095703 1.8033332824707031 69.25712585449219 1.4499998092651367 C 69.92379760742188 1.0966663360595703 70.67046356201172 0.9200000762939453 71.49713134765625 0.9200000762939453 C 73.50379943847656 0.9200000762939453 74.81713104248047 1.6466665267944336 75.43712615966797 3.1000003814697266 L 75.52713012695312 3.1000003814697266 C 75.9137954711914 2.426666259765625 76.470458984375 1.8966665267944336 77.19712829589844 1.510000228881836 C 77.92379760742188 1.1166667938232422 78.7504653930664 0.9200000762939453 79.67713165283203 0.9200000762939453 C 81.13046264648438 0.9200000762939453 82.21713256835938 1.2933330535888672 82.9371337890625 2.0399999618530273 C 83.6637954711914 2.7866668701171875 84.02713012695312 3.979999542236328 84.02713012695312 5.619999885559082 L 84.02713012695312 14 L 82.07713317871094 14 ZM 95.92896270751953 14 L 95.5389633178711 12.170000076293945 L 95.44895935058594 12.170000076293945 C 94.8089599609375 12.976666450500488 94.16896057128906 13.523333549499512 93.52896118164062 13.8100004196167 C 92.8956298828125 14.09000015258789 92.102294921875 14.229999542236328 91.14896392822266 14.229999542236328 C 89.8756332397461 14.229999542236328 88.87896728515625 13.90333366394043 88.15896606445312 13.25 C 87.43229675292969 12.59666633605957 87.06896209716797 11.663333892822266 87.06896209716797 10.449999809265137 C 87.06896209716797 7.856666564941406 89.14229583740234 6.496666431427002 93.2889633178711 6.369999885559082 L 95.46896362304688 6.300000190734863 L 95.46896362304688 5.5 C 95.46896362304688 4.493332862854004 95.2522964477539 3.75 94.81896209716797 3.270000457763672 C 94.38562774658203 2.7899999618530273 93.69229888916016 2.5500001907348633 92.73896026611328 2.5500001907348633 C 91.67229461669922 2.5500001907348633 90.46229553222656 2.880000114440918 89.10896301269531 3.5399999618530273 L 88.50896453857422 2.0500001907348633 C 89.14229583740234 1.7033329010009766 89.83563232421875 1.433333396911621 90.5889663696289 1.239999771118164 C 91.34230041503906 1.0466670989990234 92.09896087646484 0.9499998092651367 92.85896301269531 0.9499998092651367 C 94.39229583740234 0.9499998092651367 95.52562713623047 1.2866668701171875 96.25896453857422 1.9600000381469727 C 96.99896240234375 2.640000343322754 97.36896514892578 3.729999542236328 97.36896514892578 5.229999542236328 L 97.36896514892578 14 L 95.92896270751953 14 M 91.5389633178711 12.630000114440918 C 92.7456283569336 12.630000114440918 93.69563293457031 12.296667098999023 94.38896179199219 11.630000114440918 C 95.0822982788086 10.970000267028809 95.42896270751953 10.039999961853027 95.42896270751953 8.84000015258789 L 95.42896270751953 7.679999828338623 L 93.47896575927734 7.769999980926514 C 91.93229675292969 7.823333263397217 90.81896209716797 8.063333511352539 90.13896179199219 8.489999771118164 C 89.4522933959961 8.90999984741211 89.10896301269531 9.569999694824219 89.10896301269531 10.470000267028809 C 89.10896301269531 11.176666259765625 89.32229614257812 11.713333129882812 89.74896240234375 12.079999923706055 C 90.17562866210938 12.446666717529297 90.77229309082031 12.630000114440918 91.5389633178711 12.630000114440918 ZM 111.88619995117188 1.1599998474121094 L 111.88619995117188 2.390000343322754 L 109.51619720458984 2.6700000762939453 C 109.72953033447266 2.943333625793457 109.92286682128906 3.3000001907348633 110.09619903564453 3.739999771118164 C 110.26953125 4.180000305175781 110.356201171875 4.676666259765625 110.356201171875 5.229999542236328 C 110.356201171875 6.489999771118164 109.92620086669922 7.496666431427002 109.06620025634766 8.25 C 108.2061996459961 8.996665954589844 107.02619934082031 9.369999885559082 105.52619934082031 9.369999885559082 C 105.14620208740234 9.369999885559082 104.78620147705078 9.34000015258789 104.44619750976562 9.280000686645508 C 103.61953735351562 9.713333129882812 103.2061996459961 10.263333320617676 103.2061996459961 10.930000305175781 C 103.2061996459961 11.283332824707031 103.34953308105469 11.543333053588867 103.63619995117188 11.710000038146973 C 103.92953491210938 11.876667022705078 104.42620086669922 11.960000038146973 105.1261978149414 11.960000038146973 L 107.40620422363281 11.960000038146973 C 108.7928695678711 11.960000038146973 109.85953521728516 12.25333309173584 110.606201171875 12.84000015258789 C 111.35286712646484 13.426666259765625 111.7261962890625 14.276666641235352 111.7261962890625 15.390000343322754 C 111.7261962890625 16.816665649414062 111.15620422363281 17.90333366394043 110.01619720458984 18.649999618530273 C 108.8761978149414 19.39666748046875 107.2128677368164 19.770000457763672 105.02619934082031 19.770000457763672 C 103.34619903564453 19.770000457763672 102.04953002929688 19.456666946411133 101.13619995117188 18.829999923706055 C 100.22953033447266 18.203332901000977 99.77619934082031 17.31999969482422 99.77619934082031 16.18000030517578 C 99.77619934082031 15.399999618530273 100.02619934082031 14.723333358764648 100.52619934082031 14.149999618530273 C 101.02619934082031 13.583333015441895 101.72953033447266 13.196666717529297 102.63619995117188 12.989999771118164 C 102.30286407470703 12.84333324432373 102.02619934082031 12.613333702087402 101.80619812011719 12.300000190734863 C 101.58619689941406 11.986666679382324 101.47620391845703 11.623332977294922 101.47620391845703 11.210000038146973 C 101.47620391845703 10.74333381652832 101.59953308105469 10.333333015441895 101.84619903564453 9.979999542236328 C 102.09953308105469 9.626667022705078 102.49286651611328 9.286666870117188 103.02619934082031 8.960000038146973 C 102.36620330810547 8.686666488647461 101.82620239257812 8.223333358764648 101.40619659423828 7.570000171661377 C 100.98619842529297 6.909999847412109 100.77619934082031 6.159999847412109 100.77619934082031 5.319999694824219 C 100.77619934082031 3.913332939147949 101.19953155517578 2.826666831970215 102.04620361328125 2.060000419616699 C 102.89286804199219 1.3000001907348633 104.08953094482422 0.9200000762939453 105.63619995117188 0.9200000762939453 C 106.30286407470703 0.9200000762939453 106.90620422363281 1 107.44619750976562 1.1599998474121094 L 111.88619995117188 1.1599998474121094 M 101.64620208740234 16.15999984741211 C 101.64620208740234 16.85333251953125 101.93953704833984 17.380001068115234 102.52619934082031 17.739999771118164 C 103.11286926269531 18.100000381469727 103.95286560058594 18.280000686645508 105.04620361328125 18.280000686645508 C 106.67953491210938 18.280000686645508 107.88953399658203 18.03333282470703 108.67620086669922 17.540000915527344 C 109.4628677368164 17.053333282470703 109.856201171875 16.393333435058594 109.856201171875 15.559999465942383 C 109.856201171875 14.866666793823242 109.63953399658203 14.383333206176758 109.2061996459961 14.109999656677246 C 108.77953338623047 13.84333324432373 107.96953582763672 13.710000038146973 106.77619934082031 13.710000038146973 L 104.44619750976562 13.710000038146973 C 103.56620025634766 13.710000038146973 102.87953186035156 13.920000076293945 102.38619995117188 14.34000015258789 C 101.89286804199219 14.760000228881836 101.64620208740234 15.366666793823242 101.64620208740234 16.15999984741211 M 102.7061996459961 5.270000457763672 C 102.7061996459961 6.170000076293945 102.95953369140625 6.849999904632568 103.46620178222656 7.309999942779541 C 103.97286987304688 7.769999980926514 104.67953491210938 8 105.58619689941406 8 C 107.48619842529297 8 108.43620300292969 7.076666831970215 108.43620300292969 5.229999542236328 C 108.43620300292969 3.303333282470703 107.47286987304688 2.3400001525878906 105.54620361328125 2.3400001525878906 C 104.63286590576172 2.3400001525878906 103.93286895751953 2.586667060852051 103.44619750976562 3.0799999237060547 C 102.95286560058594 3.573333740234375 102.7061996459961 4.303333282470703 102.7061996459961 5.270000457763672 ZM 119.95426177978516 14.229999542236328 C 118.05426025390625 14.229999542236328 116.55426025390625 13.65333366394043 115.45426177978516 12.5 C 114.36093139648438 11.34666633605957 113.81426239013672 9.739999771118164 113.81426239013672 7.679999828338623 C 113.81426239013672 5.613333702087402 114.32426452636719 3.9700002670288086 115.3442611694336 2.75 C 116.36426544189453 1.5299997329711914 117.7309341430664 0.9200000762939453 119.44426727294922 0.9200000762939453 C 121.0575942993164 0.9200000762939453 122.3309326171875 1.4499998092651367 123.26426696777344 2.510000228881836 C 124.20426177978516 3.5699996948242188 124.67426300048828 4.966666221618652 124.67426300048828 6.699999809265137 L 124.67426300048828 7.929999828338623 L 115.82426452636719 7.929999828338623 C 115.86426544189453 9.436666488647461 116.24759674072266 10.579999923706055 116.9742660522461 11.359999656677246 C 117.69426727294922 12.146666526794434 118.71092987060547 12.539999961853027 120.02426147460938 12.539999961853027 C 121.40426635742188 12.539999961853027 122.77092742919922 12.25 124.124267578125 11.670000076293945 L 124.124267578125 13.399999618530273 C 123.4375991821289 13.699999809265137 122.78759765625 13.91333293914795 122.17426300048828 14.039999961853027 C 121.56092834472656 14.166666984558105 120.82093048095703 14.229999542236328 119.95426177978516 14.229999542236328 M 119.42426300048828 2.5500001907348633 C 118.39093017578125 2.5500001907348633 117.56759643554688 2.8866662979125977 116.95426177978516 3.560000419616699 C 116.34092712402344 4.233333587646484 115.9809341430664 5.163332939147949 115.874267578125 6.349999904632568 L 122.5942611694336 6.349999904632568 C 122.5942611694336 5.123332977294922 122.31759643554688 4.183333396911621 121.76426696777344 3.5299997329711914 C 121.21759796142578 2.876667022705078 120.4375991821289 2.5500001907348633 119.42426300048828 2.5500001907348633 ZM 136.77919006347656 14 L 136.77919006347656 5.689999580383301 C 136.77919006347656 4.643333435058594 136.54251098632812 3.8633337020874023 136.06918334960938 3.3500003814697266 C 135.5891876220703 2.8299999237060547 134.84251403808594 2.5699996948242188 133.8291778564453 2.5699996948242188 C 132.48251342773438 2.5699996948242188 131.4991912841797 2.933333396911621 130.87918090820312 3.6599998474121094 C 130.2525177001953 4.386666297912598 129.93917846679688 5.586667060852051 129.93917846679688 7.260000228881836 L 129.93917846679688 14 L 127.98918151855469 14 L 127.98918151855469 1.1599998474121094 L 129.56918334960938 1.1599998474121094 L 129.88919067382812 2.9099998474121094 L 129.97918701171875 2.9099998474121094 C 130.37918090820312 2.2766666412353516 130.93917846679688 1.7866668701171875 131.6591796875 1.4399995803833008 C 132.37918090820312 1.0933332443237305 133.17918395996094 0.9200000762939453 134.05918884277344 0.9200000762939453 C 135.60585021972656 0.9200000762939453 136.77252197265625 1.2933330535888672 137.55918884277344 2.0399999618530273 C 138.3391876220703 2.7866668701171875 138.72918701171875 3.979999542236328 138.72918701171875 5.619999885559082 L 138.72918701171875 14 L 136.77919006347656 14 ZM 150.61851501464844 14 L 150.228515625 12.170000076293945 L 150.1385040283203 12.170000076293945 C 149.49850463867188 12.976666450500488 148.85850524902344 13.523333549499512 148.218505859375 13.8100004196167 C 147.58517456054688 14.09000015258789 146.79183959960938 14.229999542236328 145.8385009765625 14.229999542236328 C 144.56517028808594 14.229999542236328 143.56851196289062 13.90333366394043 142.8485107421875 13.25 C 142.12184143066406 12.59666633605957 141.75851440429688 11.663333892822266 141.75851440429688 10.449999809265137 C 141.75851440429688 7.856666564941406 143.83184814453125 6.496666431427002 147.978515625 6.369999885559082 L 150.15850830078125 6.300000190734863 L 150.15850830078125 5.5 C 150.15850830078125 4.493332862854004 149.9418487548828 3.75 149.50851440429688 3.270000457763672 C 149.07518005371094 2.7899999618530273 148.3818359375 2.5500001907348633 147.4285125732422 2.5500001907348633 C 146.36184692382812 2.5500001907348633 145.15184020996094 2.880000114440918 143.7985076904297 3.5399999618530273 L 143.19850158691406 2.0500001907348633 C 143.83184814453125 1.7033329010009766 144.52517700195312 1.433333396911621 145.27850341796875 1.239999771118164 C 146.03184509277344 1.0466670989990234 146.78851318359375 0.9499998092651367 147.5485076904297 0.9499998092651367 C 149.08184814453125 0.9499998092651367 150.21517944335938 1.2866668701171875 150.94850158691406 1.9600000381469727 C 151.68850708007812 2.640000343322754 152.05850219726562 3.729999542236328 152.05850219726562 5.229999542236328 L 152.05850219726562 14 L 150.61851501464844 14 M 146.228515625 12.630000114440918 C 147.4351806640625 12.630000114440918 148.3851776123047 12.296667098999023 149.07850646972656 11.630000114440918 C 149.77183532714844 10.970000267028809 150.11851501464844 10.039999961853027 150.11851501464844 8.84000015258789 L 150.11851501464844 7.679999828338623 L 148.1685028076172 7.769999980926514 C 146.62184143066406 7.823333263397217 145.50851440429688 8.063333511352539 144.82850646972656 8.489999771118164 C 144.141845703125 8.90999984741211 143.7985076904297 9.569999694824219 143.7985076904297 10.470000267028809 C 143.7985076904297 11.176666259765625 144.0118408203125 11.713333129882812 144.43850708007812 12.079999923706055 C 144.86517333984375 12.446666717529297 145.4618377685547 12.630000114440918 146.228515625 12.630000114440918 ZM 160.21575927734375 12.630000114440918 C 160.5624237060547 12.630000114440918 160.895751953125 12.603333473205566 161.21575927734375 12.550000190734863 C 161.53575134277344 12.50333309173584 161.78909301757812 12.449999809265137 161.9757537841797 12.390000343322754 L 161.9757537841797 13.880000114440918 C 161.76242065429688 13.986666679382324 161.45242309570312 14.069999694824219 161.04574584960938 14.130000114440918 C 160.63241577148438 14.196666717529297 160.26242065429688 14.229999542236328 159.9357452392578 14.229999542236328 C 157.44908142089844 14.229999542236328 156.20574951171875 12.923333168029785 156.20574951171875 10.309999465942383 L 156.20574951171875 2.6700000762939453 L 154.36575317382812 2.6700000762939453 L 154.36575317382812 1.7299995422363281 L 156.20574951171875 0.9200000762939453 L 157.0257568359375 -1.8199996948242188 L 158.15574645996094 -1.8199996948242188 L 158.15574645996094 1.1599998474121094 L 161.88575744628906 1.1599998474121094 L 161.88575744628906 2.6700000762939453 L 158.15574645996094 2.6700000762939453 L 158.15574645996094 10.229999542236328 C 158.15574645996094 11.00333309173584 158.33908081054688 11.59666633605957 158.70574951171875 12.010000228881836 C 159.07241821289062 12.423333168029785 159.5757598876953 12.630000114440918 160.21575927734375 12.630000114440918 ZM 175.6263885498047 7.570000171661377 C 175.6263885498047 9.663333892822266 175.0997314453125 11.296667098999023 174.04638671875 12.470000267028809 C 172.98638916015625 13.643333435058594 171.52972412109375 14.229999542236328 169.6763916015625 14.229999542236328 C 168.52305603027344 14.229999542236328 167.50306701660156 13.963333129882812 166.61639404296875 13.430000305175781 C 165.7230682373047 12.890000343322754 165.03306579589844 12.116666793823242 164.54640197753906 11.109999656677246 C 164.06639099121094 10.09666633605957 163.82640075683594 8.916666030883789 163.82640075683594 7.570000171661377 C 163.82640075683594 5.476666450500488 164.3497314453125 3.8433332443237305 165.39639282226562 2.6700000762939453 C 166.44305419921875 1.5033330917358398 167.89639282226562 0.9200000762939453 169.7563934326172 0.9200000762939453 C 171.5497283935547 0.9200000762939453 172.9763946533203 1.5166664123535156 174.03639221191406 2.7100000381469727 C 175.0963897705078 3.9099998474121094 175.6263885498047 5.529999732971191 175.6263885498047 7.570000171661377 M 165.83639526367188 7.570000171661377 C 165.83639526367188 9.210000038146973 166.16639709472656 10.460000038146973 166.82640075683594 11.319999694824219 C 167.47972106933594 12.180000305175781 168.44305419921875 12.609999656677246 169.71640014648438 12.609999656677246 C 170.98973083496094 12.609999656677246 171.95639038085938 12.180000305175781 172.61639404296875 11.319999694824219 C 173.27639770507812 10.466667175292969 173.6063995361328 9.216667175292969 173.6063995361328 7.570000171661377 C 173.6063995361328 5.936666488647461 173.27639770507812 4.696666717529297 172.61639404296875 3.8500003814697266 C 171.95639038085938 2.99666690826416 170.98306274414062 2.5699996948242188 169.69639587402344 2.5699996948242188 C 168.42306518554688 2.5699996948242188 167.4630584716797 2.989999771118164 166.81639099121094 3.8299999237060547 C 166.16305541992188 4.663332939147949 165.83639526367188 5.909999847412109 165.83639526367188 7.570000171661377 ZM 184.89035034179688 0.9200000762939453 C 185.46368408203125 0.9200000762939453 185.97702026367188 0.9666662216186523 186.43035888671875 1.0600004196166992 L 186.1603546142578 2.869999885559082 C 185.62701416015625 2.75 185.15701293945312 2.689999580383301 184.75035095214844 2.689999580383301 C 183.71035766601562 2.689999580383301 182.8236846923828 3.1133337020874023 182.09034729003906 3.9600000381469727 C 181.35035705566406 4.800000190734863 180.9803466796875 5.850000381469727 180.9803466796875 7.110000133514404 L 180.9803466796875 14 L 179.0303497314453 14 L 179.0303497314453 1.1599998474121094 L 180.64035034179688 1.1599998474121094 L 180.8603515625 3.5399999618530273 L 180.95034790039062 3.5399999618530273 C 181.43035888671875 2.6999998092651367 182.00701904296875 2.053333282470703 182.68035888671875 1.6000003814697266 C 183.34701538085938 1.1466665267944336 184.08367919921875 0.9200000762939453 184.89035034179688 0.9200000762939453 Z" transform="matrix(0.9037318229675293, 0, 0, 0.9037318229675293, -50.75646209716797, -6.79671573638916)" style="fill: rgb(51, 51, 51); white-space: pre; color: rgb(51, 51, 51);"/>
  </g>
  <g transform="matrix(0.723677, -0.009241, 0.007124, 0.938745, 7.088428, 265.035034)" style="">
    <g id="layer1">
      <path id="path3072" transform="matrix(0 4.9706 -4.9706 0 552.79 -596.47)" d="m120 60v30h30z"/>
      <path id="path3074" d="m120 60v30h30z" fill="#00f" transform="matrix(-3.5147 3.5147 -3.5147 -3.5147 992.65 -105.44)"/>
      <path id="path3076" d="m120 60v30h30z" fill="#0f0" transform="matrix(-4.9706 0 0 -4.9706 956.47 552.79)"/>
      <path id="path3100" d="m120 60v30h30z" fill="#f00" transform="matrix(-3.5147 -3.5147 3.5147 -3.5147 465.44 992.65)"/>
      <path id="path3102" d="m120 60v30h30z" fill="#fff" transform="matrix(0 -4.9706 4.9706 0 -192.79 956.47)"/>
      <path id="path3104" d="m120 60v30h30z" fill="#ff0" transform="matrix(3.5147 -3.5147 3.5147 3.5147 -632.65 465.44)"/>
      <path id="path3106" d="m120 60v30h30z" fill="#f0f" transform="matrix(4.9706 0 0 4.9706 -596.47 -192.79)"/>
      <path id="path3108" d="m120 60v30h30z" fill="#0ff" transform="matrix(3.5147 3.5147 -3.5147 3.5147 -105.44 -632.65)"/>
      <path id="path3193" stroke="#000" stroke-width="1px" fill="none" d="m210.88 254.56 43.675-43.675v-61.766l-43.675-43.675h-61.766l-43.675 43.675-0.00003 61.766 43.675 43.675z"/>
      <path id="path3195" stroke="#000" stroke-width="1px" fill="none" d="m105.44 360h149.12l105.44-105.44v-149.12l-105.44-105.44h-149.12l-105.44 105.44v149.12z"/>
    </g>
  </g>
</svg>